/* XPM */
static char *result[] = {
/* columns rows colors chars-per-pixel */
"32 32 7 1 ",
"  c #B71C1C",
". c #D32F2F",
"X c #E53935",
"o c #EF5350",
"O c #E57373",
"+ c #FFCDD2",
"@ c None",
/* pixels */
"@@@@@@@@@@@@@@@@@@@@@@@@@@@@@@@@",
"@@@@@@@@@@@@@@@@@@@@@@@@@@@@@@@@",
"@@@@@@@@@@@@@@@@@@@@@@@@@@@@@@@@",
"@@@@@@@@@@@@@@@@@@@@@@@@@@@@@@@@",
"@@@@@@@@@@@@@@@@@@@@@@@@@@@@@@@@",
"@@@@@@@@@@@@@@@@@@@@@@@@@@@@@@@@",
"@@@@@@@@@@@@@@@@@@@@@@@@@@@@@@@@",
"@@@@@@@@@@@@@@@@@@@@@@@@@@@@@@@@",
"@@@@@@@@@@@@@@@@@@@@@@@@@@@@@@@@",
"@@@@@@@@@OOOOO@@@oooXX@@@@@@@@@@",
"@@@@@@@@@OOOOO@@@oooXX@@@@@@@@@@",
"@@@@@@@@@OOOOO@@@oooXX@@@@@@@@@@",
"@@@@@@OOO++OOOOOOXXX..   @@@@@@@",
"@@@@@@OOO++OOOOOOXXX..   @@@@@@@",
"@@@@@@OOOOOOOOOOOXXX..   @@@@@@@",
"@@@@@@OOOOOOOOOOOXXX..   @@@@@@@",
"@@@@@@OOOOOOOOOOOXXX..   @@@@@@@",
"@@@@@@@@@OOOOOXXX...  @@@@@@@@@@",
"@@@@@@@@@OOOOOXXX...  @@@@@@@@@@",
"@@@@@@@@@OOOOOXXX...  @@@@@@@@@@",
"@@@@@@@@@@@XXX...   @@@@@@@@@@@@",
"@@@@@@@@@@@XXX...   @@@@@@@@@@@@",
"@@@@@@@@@@@@@@   @@@@@@@@@@@@@@@",
"@@@@@@@@@@@@@@   @@@@@@@@@@@@@@@",
"@@@@@@@@@@@@@@   @@@@@@@@@@@@@@@",
"@@@@@@@@@@@@@@@@@@@@@@@@@@@@@@@@",
"@@@@@@@@@@@@@@@@@@@@@@@@@@@@@@@@",
"@@@@@@@@@@@@@@@@@@@@@@@@@@@@@@@@",
"@@@@@@@@@@@@@@@@@@@@@@@@@@@@@@@@",
"@@@@@@@@@@@@@@@@@@@@@@@@@@@@@@@@",
"@@@@@@@@@@@@@@@@@@@@@@@@@@@@@@@@",
"@@@@@@@@@@@@@@@@@@@@@@@@@@@@@@@@"
};