/* XPM */
static char *c6669a6aa21b48ead95ba4cd0c6a9c7f5LMU0Wxu1qo20co7[] = {
/* columns rows colors chars-per-pixel */
"32 32 139 2 ",
"   c #010101",
".  c #0A0A0A",
"X  c #111111",
"o  c #1C1A1B",
"O  c #2B1E1D",
"+  c #242425",
"@  c #2B2323",
"#  c #262728",
"$  c #2B2628",
"%  c #2A2A2A",
"&  c #322625",
"*  c #2F3030",
"=  c #333333",
"-  c #3B3435",
";  c #383738",
":  c #393839",
">  c #42211E",
",  c #51211D",
"<  c #58211C",
"1  c #582622",
"2  c #542925",
"3  c #5B2B26",
"4  c #5A2D2A",
"5  c #44373B",
"6  c #4C3639",
"7  c #4C3A3C",
"8  c #503739",
"9  c #533B3C",
"0  c #5B3C3C",
"q  c #6D2720",
"w  c #6A2A24",
"e  c #702F2A",
"r  c #73312A",
"t  c #643634",
"y  c #6C3734",
"u  c #643C3A",
"i  c #6C3E3A",
"p  c #723633",
"a  c #7D3731",
"s  c #753C36",
"d  c #7B3834",
"f  c #733E3A",
"g  c #7A3E3B",
"h  c #64413F",
"j  c #6B413F",
"k  c #74403E",
"l  c #7E423E",
"z  c #403F40",
"x  c #4D3D40",
"c  c #444444",
"v  c #4A4446",
"b  c #4E484B",
"n  c #574041",
"m  c #5C4545",
"M  c #534649",
"N  c #5B4648",
"B  c #544B4D",
"V  c #5B4B4C",
"C  c #544F51",
"Z  c #5B4E52",
"A  c #535152",
"S  c #5C5254",
"D  c #5E5659",
"F  c #5E5D5D",
"G  c #624443",
"H  c #6E4644",
"J  c #6E4748",
"K  c #614C4B",
"L  c #6C4B4B",
"P  c #734645",
"I  c #7B4442",
"U  c #754846",
"Y  c #7A4944",
"T  c #69504F",
"R  c #71504E",
"E  c #654F53",
"W  c #694F50",
"Q  c #635355",
"!  c #64565A",
"~  c #69565B",
"^  c #615C5E",
"/  c #6C5A5D",
"(  c #715B5E",
")  c #5F5F60",
"_  c #665E60",
"`  c #626262",
"'  c #6F6668",
"]  c #6A6A6A",
"[  c #727272",
"{  c #87342D",
"}  c #8B352D",
"|  c #92352D",
" . c #843731",
".. c #843B34",
"X. c #8D3B34",
"o. c #853F3B",
"O. c #953E36",
"+. c #9C3B32",
"@. c #913F38",
"#. c #84443E",
"$. c #8D4139",
"%. c #9E4037",
"&. c #94453D",
"*. c #9C453D",
"=. c #A0453C",
"-. c #834641",
";. c #824A44",
":. c #8B4842",
">. c #904740",
",. c #944C45",
"<. c #9B4C44",
"1. c #9D4D45",
"2. c #924F48",
"3. c #974F48",
"4. c #994F48",
"5. c #82524D",
"6. c #87534D",
"7. c #8A504B",
"8. c #8D524B",
"9. c #94524B",
"0. c #92524C",
"q. c #995049",
"w. c #9C524B",
"e. c #9A524C",
"r. c #9B554E",
"t. c #9C544D",
"y. c #8F5852",
"u. c #885B57",
"i. c #8A5D58",
"p. c #995751",
"a. c #9D5650",
"s. c #9C5751",
"d. c #955A54",
"f. c #995953",
"g. c #9B5A53",
"h. c #995F59",
"j. c #9A615C",
"k. c #808080",
"l. c gray55",
/* pixels */
"] l.[ [ [ [ [ [ [ [ [ [ [ [ F % ` l.[ [ [ [ [ [ [ [ [ [ [ [ D X ",
"l.] ` ` ` ` ` ` ` ` ` ` ` F M M ' ] ` ` ` ` ` ` ` ` ` ` ` ` ` % ",
"[ ` ` ` ` ` ` ` ` ` ` ^ S 0 h R 0 S ^ ` ` ` ` ` ` ` ` ` ` ` D % ",
"[ ` ` ` ` ` ` ` ` ` ^ S G f #.;.Y i V ^ ` ` ` ` ` ` ` ` ` F c % ",
"[ ` ` ` ` ` ` ` ` ` D L ;.y.3.q.$.6.j Q ` ` ` ` ` ` ` ` ` F c % ",
"[ ` ` ` ^ F ^ ^ ` ` ^ k >.4.w.<.g.&.k ^ ` ` ` ` ^ F ^ ` ` F c % ",
"[ ` ` ^ V Q G n V S D Q -.,.w.%.w.@.W F D S V m G m D ` ` F c % ",
"[ ` ` ^ R l ;.s y t 0 S P | a.=.1.O.L N G t H Y -.#.Q ` ` F c % ",
"[ ` ` ^ U ,.p.9.0.{ s s a w 4 3 1 < e p 5.#.8.2.,.o.! ` ` F c % ",
"[ ` ` ` L $.q.q.r.4.d.X., o + # + + > { &.q.p.g.g.U ) ` ` F c % ",
"[ ` ` ` ^ l *.1.w.t.a.:.O % = : ; = $ r 1.t.w.r.$.Q ` ` ` F c % ",
"[ ` ` ` ` J | r.p.e.1.X.O % ; c z ; + 2 1.g.q.*.g ^ ` ` ` F c % ",
"[ ` ` ` ` ^ P #.I { | | > + = : ; * @ q } $.X.X.Q ` ` ` ` F c % ",
"[ ` ` F F F D S D Q s | | > @ & & O w } i K K Q D F F F F F c + ",
"D ` D c c c c B J g ..O.%.&.} { { X.<.| a i m v c c c c c c + . ",
"o ; ; = = = - j X.q.*.g.t.*.+.p  .+.*.r.4.O...0 = = = = = % X   ",
"` k.] ] ] ` n f 2.t.1.1.w.%. .6 t O.a.1.t.h.2.I / ] ] ] ] ] A . ",
"l.] ` ` ` ` 9 J $.q.*.1.r.$.t 7 6 ..*.p.j.j.0.d T ` ` ` ` ` ` % ",
"[ ` ` ` ` F x u #.,.*.,...y n E V 0 ;.,.r.d.7.y K ` ` ` ` ` D % ",
"[ ` ` ` ` ` B 9 Y :...#.u x E ( ( M 8 P i.u.U 0 M ` ` ` ` F c % ",
"[ ` ` ` ` ` F 7 0 u t 0 v Z ~ ( ( Q v 5 0 G 0 7 S ` ` ` ` F c % ",
"[ ` ` ` ` ` ` S M V V M B Q ~ ( / ! Z b B V V B F ` ` ` ` F c % ",
"[ ` ` ` ` ` ` ` ` ` ^ Q Q ! ! ~ ! S B S ` ` ` ` ` ` ` ` ` F c % ",
"[ ` ` ` ` ` ` ` ` ^ ! S F F S Q S D A Z ! ` ` ` ` ` ` ` ` F c % ",
"[ ` ` ` ` ` ` ` ` ! S F ^ S S Q Q ^ F D ~ ^ ` ` ` ` ` ` ` F c % ",
"[ ` ` ` ` ` ` ` ^ ! F ` S S Q Z Q ! ^ ` ^ ^ ` ` ` ` ` ` ` F c % ",
"[ ` ` ` ` ` ` ` ^ ~ ^ F S Q B = B ! ^ ` ! ! ` ` ` ` ` ` ` F c % ",
"[ ` ` ` ` ` ` ` _ ~ ^ ^ S Q v % C S ^ ^ ^ ! ^ ` ` ` ` ` ` F c % ",
"[ ` ` ` ` ` ` ` ^ / ` ` D S c = ` S ^ ` ` ^ ^ ` ` ` ` ` ` F c % ",
"[ ` ` F F F F F F ! F F S S c % ` ! ^ F F ! F F F F F F F D c + ",
"D ` D c c c c c c c c C S Q = X B Q ! B c c c c c c c c c c + . ",
"X % % % % % % % % % c S ! ! 5 $ S ~ ~ Z ; % % % % % % % % + .   "
};