/* XPM */
static char *c1340a5ececb47788b7a5870ec487cb0bSa32deZ00HvYdU3[] = {
/* columns rows colors chars-per-pixel */
"64 64 168 2 ",
"   c None",
".  c #010101",
"X  c #04050C",
"o  c #0C0C0D",
"O  c #090706",
"+  c #070A16",
"@  c #0B0D13",
"#  c #080A19",
"$  c #0F101B",
"%  c #111213",
"&  c #111219",
"*  c #1C1B1C",
"=  c #181716",
"-  c #070E24",
";  c #090D22",
":  c #0F1322",
">  c #141926",
",  c #1D1E22",
"<  c #161B2B",
"1  c #1C1F2B",
"2  c #131B34",
"3  c #181E33",
"4  c #131A3C",
"5  c #1E212C",
"6  c #232324",
"7  c #25262A",
"8  c #292929",
"9  c #533426",
"0  c #5B3A2C",
"q  c #563729",
"w  c #5E3E30",
"e  c #5E4134",
"r  c #644435",
"t  c #6A4636",
"y  c #674836",
"u  c #654638",
"i  c #674838",
"p  c #6C4B3B",
"a  c #6A4838",
"s  c #724B3A",
"d  c #74533E",
"f  c #7B553E",
"g  c #7D583C",
"h  c #23255E",
"j  c #1F276B",
"k  c #1E2974",
"l  c #2A2C68",
"z  c #353764",
"x  c #232B77",
"c  c #242D7E",
"v  c #282E73",
"b  c #2C3177",
"n  c #3B3D73",
"m  c #39417D",
"M  c #575758",
"N  c #724F40",
"B  c #755242",
"V  c #795443",
"C  c #7E5A45",
"Z  c #7E5B48",
"A  c #6D6D6D",
"S  c #636469",
"D  c #6F6F70",
"F  c #747474",
"G  c #7C7C7C",
"H  c #707279",
"J  c #ED1C24",
"K  c #9C5A3C",
"L  c #8B633F",
"P  c #865A46",
"I  c #835D49",
"U  c #8C634B",
"Y  c #85614D",
"T  c #91644B",
"R  c #8A6553",
"E  c #DAA31A",
"W  c #E4AB16",
"Q  c #EBB113",
"!  c #FFC20E",
"~  c #AE896C",
"^  c #B88F6F",
"/  c #B28C74",
"(  c #B58F78",
")  c #BE967D",
"_  c #B79277",
"`  c #C69A77",
"'  c #C59C7E",
"]  c #CA9E7D",
"[  c #D19F79",
"{  c #CCA17E",
"}  c #1C3181",
"|  c #252E82",
" . c #273084",
".. c #2B3385",
"X. c #26348A",
"o. c #2A338D",
"O. c #323C83",
"+. c #253794",
"@. c #2B3691",
"#. c #2B3A96",
"$. c #2A3D9A",
"%. c #283899",
"&. c #303C9E",
"*. c #2E3EA1",
"=. c #313EA3",
"-. c #2D419D",
";. c #374295",
":. c #2D42A3",
">. c #2F47AB",
",. c #3241A5",
"<. c #3245AB",
"1. c #3549A9",
"2. c #3447B0",
"3. c #334AB4",
"4. c #344FB9",
"5. c #4A5396",
"6. c #7F7F81",
"7. c #4959A9",
"8. c #00B7EF",
"9. c #858585",
"0. c #8B8B8B",
"q. c #939394",
"w. c #9B9B9B",
"e. c #B59381",
"r. c #BD9781",
"t. c #A2A2A3",
"y. c gray66",
"u. c #B4B4B4",
"i. c #C39B83",
"p. c #C29782",
"a. c #CCA384",
"s. c #CBA38B",
"d. c #CAA487",
"f. c #D0A685",
"g. c #D3AB8D",
"h. c #DAAD8F",
"j. c #D2A98A",
"k. c #D8B08F",
"l. c #CEA891",
"z. c #D4AD92",
"x. c #D8AE94",
"c. c #D6AE98",
"v. c #D5B194",
"b. c #DBB294",
"n. c #DBB499",
"m. c #DBB69A",
"M. c #DDB599",
"N. c #DDB699",
"B. c #DDB69B",
"V. c #DEB69A",
"C. c #DEB79C",
"Z. c #DEB79D",
"A. c #DDB79D",
"S. c #DCB59A",
"D. c #DEB99F",
"F. c #DDBA9E",
"G. c #DEBD9F",
"H. c #D4B5A1",
"J. c #DDB7A1",
"K. c #D9B7A2",
"L. c #DBB9A2",
"P. c #DDB9A1",
"I. c #DEB9A0",
"U. c #DDB9A2",
"Y. c #DCB8A2",
"T. c #DDBBA2",
"R. c #DDBAA1",
"E. c #DDBDA2",
/* pixels */
"                                                                                                                                ",
"                                                                                                                                ",
"                                                                                                                                ",
"                                                                                                                                ",
"                                                        u p p p u                                                               ",
"                                                      u p B B B p r                                                             ",
"                                                    u p g I Z Z d p r                                                           ",
"                                                    p g L W ! Q I d y                                                           ",
"                                                    y f E ! ! ! Q I r                                                           ",
"                                                e e e w w w w w w w w e e                                                       ",
"                                          u i p p p p p p p p s s p p p r i i u u                                               ",
"                                      r i p s V Z V V V V V V V V V V B N s B s p i                                             ",
"                                      i p s V a.h.b.V V V V V V V I b.b.b.b.V V B p i                                           ",
"                                    p p B b.b.V.V.V.N.b.b.V V V h.x.N.V.V.V.b.b.V B p r                                         ",
"                                    p d I g.V.V.F.T.G.I.Z.V.V.V.V.Z.F.F.V.V.V.x.h.Z s r                                         ",
"                                    p B s.z.m.Z.F.T.T.T.T.T.T.T.T.I.I.I.Z.V.V.b.g.p.V u                                         ",
"                                    s Z d.c.m.Z.I.T.T.T.I.I.I.I.I.I.I.I.I.Z.V.m.z.i.Z p                                         ",
"                                    B R d.n.V.J.I.I.I.I.I.L.I.I.I.I.I.I.I.Z.V.V.x.d.Y V                                         ",
"                                    p.s.g.b.P P P P P L.L.I.I.L.I.I.J.P P P P P x.s.i.)                                         ",
"                                    d.g.x.m.H.Z.J.I.I.L.L.L.L.I.I.I.I.J.J.Z.Z.H.b.x.g.i.                                        ",
"                                    d.g.x.m.V.. . . . I.I.L.L.J.I.I.I.. . . . V.V.x.g.d.                                        ",
"                                    d.j.x.m.V.. . . . I.I.I.L.I.I.I.J.. . . . V.V.b.g.d.                                        ",
"                                    p.d.x.m.V.Z.. . . I.I.I.I.T.I.I.J.. . . Z.V.V.x.s.)                                         ",
"                                    9 p.g.n.m.V.Z.F.F.I.I.I.[ [ F.F.Z.Z.Z.Z.V.V.V.x.p.p                                         ",
"                                  q 0 ' g.x.m.m.V.Z.F.Z.Z.Z.J Z.Z.Z.Z.Z.Z.Z.V.V.n.x./ N p                                       ",
"                                  a s s d.g.x.V.m.m.Z.Z.Z.Z.J Z.V.V.Z.Z.Z.V.V.V.b.g.s s B                                       ",
"                                t V U C s d.g.x.v.b.m.m.' ' ' ' ' ' m.m.V.V.m.b.x.i.s U I V                                     ",
"                                s P T U t s d.g.g.z.z.v.v.' ' ' i.v.v.v.n.n.x.j.r.s s U U V                                     ",
"                                s P P V s s s i.d.s.l.z.v.b.b.b.b.v.z.l.x.z.s.( s V I U U s                                     ",
"                                s V f s t s 9 9 p.i.r.e.r.H.b.b.b.v.i.e.i.i.' s s u s f f s                                     ",
"                                0 t p s 0           . $.. v.x.b.b.( . $..           w r u r                                     ",
"                                  0 0 s           X X $.. O ( i.' . . $.@ o         9 0 0                                       ",
"                                                o % % X $.. . / . . $.$.& % %                                                   ",
"                                              o 6 7 , % $.. o o . . $.$ , 6 * %                                                 ",
"                                              * 7 8 8 * K X $ , @ - K 5 7 7 6 o                                                 ",
"                                            . * 7 8 7 * $.$.> 1 > $.$.6 7 7 6 o .                                               ",
"                                            . . = 6 * @ - $.3 7 < $.+ & 6 7 o o .                                               ",
"                                            ` ^ . X o . . $.3 5 < $.+ @ % * . ` `                                               ",
"                                          { ] ) ~   . . . } 2 1 : %.. . X   ` ` { {                                             ",
"                                          a.a.a.a.  X + ; K 4 2 # K ; X .   ` a.a.f.                                            ",
"                                        { f.j.      x  .@.K #.-.:.K -.-.3.      f.f.{                                           ",
"                                        { j.b.      k X.*.:.-.-.-.:.>.>.4.      h.j.{                                           ",
"                                      { a.h.        k X.$.:.:.$.$.:.<.3.4.        h.a.{                                         ",
"                                      { g.b.        c @.$.<.-.%.+.-.<.3.4.        k.j.a.                                        ",
"                                    ] a.h.          X.#.:.<.:.} c #.:.3.4.          8.8.8.                                      ",
"                                    ] g.b.b.        $.*.<.3.2.  | #.:.3.4.        b.h.j.a.                                      ",
"                                    ] k.  b.        *.:.<.3.3.  o.#.,.3.4.        b.  g.{                                       ",
"                                    `               =.=.<.3.4.  $.$.,.2.3.              ]                                       ",
"                                    `               *.=.=.2.4.  $.=.,.<.3.              `                                       ",
"                                                    =.=.=.<.3.  $.=.,.<.2.                                                      ",
"                                                    $.&.=.<.3.  &.=.=.<.2.                                                      ",
"                                                    #.&.=.,.3.  $.$.=.,.3.                                                      ",
"                                                    o.#.*.,.2.  o.@.$.=.3.                                                      ",
"                                                    |  .#.=.<.  | X.@.&.,.                                                      ",
"                                                    x c o.&.,.  x c ..@.=.                                                      ",
"                                                    j x ..;.1.  l v b O.;.                                                      ",
"                                                    h l m 5.7.  z n n m ;.                                                      ",
"                                                        t.H S   M F y.                                                          ",
"                                                        q.6.D   A 9.w.                                                          ",
"                                                    u.t.0.G A   A 9.q.t.u.                                                      ",
"                                                    u.w.9.F S   A G 0.w.u.                                                      ",
"                                                                                                                                ",
"                                                                                                                                ",
"                                                                                                                                "
};