/* XPM */
static char *result[] = {
/* columns rows colors chars-per-pixel */
"32 32 5 1 ",
"  c gray43",
". c #8B8B8B",
"X c #9B9B9B",
"o c gray70",
"O c None",
/* pixels */
"OOOOOOOOOOOOOOOOOOOOOOOOOOOOOOOO",
"OOOOOOOOOOOOOOOOOOOOOOOOOOOOOOOO",
"OOOOOOOOOOOOOOOOOOOOOOOOOOOOOOOO",
"OOOOOOOOOOOOOOOOOOOOOOOOOOOOOOOO",
"OOOOXX      X..    ...   ..OOOOO",
"OOOOXX      X..    ...   ..OOOOO",
"OOOOXXXXX... XXX   XXXXXX..OOOOO",
"OOOOXXoooX.. ooXXX XXooo   OOOOO",
"OOOOXXoooX.. ooXXX XXooo   OOOOO",
"OOOOXXoooo     oXX   o..   OOOOO",
"OOOOXXX   oo.  o..         OOOOO",
"OOOOXXX   oo.  o..         OOOOO",
"OOOOXXXXXXooo      XX.  X  OOOOO",
"OOOO   XXoooX     XXXoooX  OOOOO",
"OOOO   XXoooX     XXXoooX  OOOOO",
"OOOO   XXXXXX..    XXoooo..OOOOO",
"OOOOXX    XX.  .   XXXooo..OOOOO",
"OOOOXX    XX.  .   XXXooo..OOOOO",
"OOOOXXX      XXX     XXXX  OOOOO",
"OOOOooooo.  XXXXXX         OOOOO",
"OOOOooooo.  XXXXXX         OOOOO",
"OOOOoo.     oooX.. .....   OOOOO",
"OOOO.. ..... ooo.. XXXXXX..OOOOO",
"OOOO.. ..... ooo.. XXXXXX..OOOOO",
"OOOO  XXXX...     XXXoooX..OOOOO",
"OOOOXXXXXoooX...  oooooooXXOOOOO",
"OOOOXXXXXoooX...  oooooooXXOOOOO",
"OOOOOOOOOOOOOOOOOOOOOOOOOOOOOOOO",
"OOOOOOOOOOOOOOOOOOOOOOOOOOOOOOOO",
"OOOOOOOOOOOOOOOOOOOOOOOOOOOOOOOO",
"OOOOOOOOOOOOOOOOOOOOOOOOOOOOOOOO",
"OOOOOOOOOOOOOOOOOOOOOOOOOOOOOOOO"
};