/* XPM */
static char *a38502f56d0e483ae5867f526e8345e5rIh2VoT0tonODIjf[] = {
/* columns rows colors chars-per-pixel */
"64 64 4 1 ",
"  c None",
". c black",
"X c #1E3DBA",
"o c #4D6DF3",
/* pixels */
"                                                                ",
"                                                                ",
"                                                                ",
"                                                                ",
"                                                                ",
"     .....................................................      ",
"     .....................................................      ",
"     ..oooXX...............................oooXXXXXXX.....      ",
"     ..oooXXXXXXXXXXXXXXXooooXXXXXXXXXXoooooooXXXXXoooo...      ",
"     ..oooXXXXXXXXXXXXXXXooooXXXXXXXXXXooooooXXXXXXoooo...      ",
"     ..oooXXXXXXXXXXXXXXXooooXXXXXXXXXXooooooXXXXXXoooo...      ",
"     ..ooooooooooXXXXXXXXXXooXXXXXXXXXXoooooooooooooooo...      ",
"     ..ooooooooooXXXXXXXXXXooooooooXXXooooooooooooooooo...      ",
"     ..ooooooooooXXXXXXXXXXooooooooXXXoooooooooooXXXXXX...      ",
"     ..ooXXXXXXXXXXXXXXXXXXXXXoooooXXXooooXXXXXXXXXXXXX...      ",
"     ..ooXXXXXXXXXXXXXXXXXXXXXoooooXXXooooXXXXXXXXXXXXX...      ",
"     ..ooXXXXXXXXXXXXXXXXXXXXXXXXooXXXooooXXXXXXXXXXXXX...      ",
"     .oooXXXXXXXXXXXXXXXXXXXXXXXXooXXXXXXXXXXXXXXXXXXXX...      ",
"     .oooXXXXXXXXXXXXXXXXXXXXXXXXooXXXXXXXXXXXXXXXXXXXX...      ",
"     .oooXXXXXXXXXXXXXXXXXXXXXXXXooXXXXXXXXXXXXXXXXXXXX...      ",
"     .oooXXXXXXXXXXXXXXXXXXXXXXXXooXXXXXXXXXXXXXXXXXXXX...      ",
"     .ooooooooXXXXXXXXXXXXXXXXXXXooXXXXXXXXXXXXXXXXXXXX...      ",
"     .ooooooooooooooXXXXXXXXXXXXXooXXXXXXXXXXXXXXXXXXXX...      ",
"     .ooooooooooooooXXXXXXXXXXXXXXXXXXXXXXXXXXXXXXXXXXX...      ",
"     .ooooooooooooooXXXXXXXXXXXXXXXXXXXoooooooXXXoooXXX...      ",
"     .oooooooooooXXXXXXXXXXXXXXXXXXXXXXoooooooXXXoooXXX...      ",
"     ..XXXXXXooooXXXXXXXXXXXXXXXXXXXXXXoooooooXXXoooXXX...      ",
"     ..XXXXXXooooXXXXXXXooXXXXXXXXooooooooooooooooooXXX...      ",
"     ..XXXXXXooooXXXXXXXooXXXXXXXXooooooooooooooooooXXX...      ",
"     ..XXXXXXooooXXXXXXXooXXXXXXXXooooooooooooooooooXXX...      ",
"     ..XXXXXXoooooooooooooooooXXXXXXXoooooooooooooooooo...      ",
"     ..XXXXXXoooooooooooooooooXXXXXXXoooooooooooooooooo...      ",
"     ..XXXXXXoooooooooooXXXXXXXXXXXXXoooooooooooooooooo...      ",
"     ...ooooXXXXXXXXoooXXXXXXXXXXXXXXoooooooooooooooooo...      ",
"     ...ooooXXXXXXXXoooXXXXXXXXXXXXXXoooooooooooooooooo...      ",
"     ...ooooXXXXXXXXoooXXXXooooXXXXXXoooooooooooooooooo...      ",
"     ...oooooXXXXXXXXXXXXXXooooXXXXXXXXXXXooooooooooXXX...      ",
"     ...oooooXXXXXXXXXXXXXXooooXXXXXXXXXXXooooooooooXXX...      ",
"     ...ooooooooooooXXXXXXXooooXXXXXXXXXXXooooooooooXXX...      ",
"     ...oooooooooooooXXXooooooooooooXXXXXXXXXXXXXXXXXXX...      ",
"     ...oooooooooooooXXXooooooooooooXXXXXXXXXXXXXXXXXXX...      ",
"     ...oooXXXXXXXXXXXXXooooooooooooXXXXXXXXXXXXXXXXXXX...      ",
"     ...oooXXXXXXXXXXXXXXXXooooooXXXXXXXXXXXXXXXXXXXXXX...      ",
"     ..ooooXXXXXXXXXXXXXXXXXXooooXXXXXXXXXXXXXXXXXXXXXX...      ",
"     ..ooooXXXXXXXXXXXXXXXXXXooooXXXXXXXXXXXXXXXXXXXXXX...      ",
"     ..ooooXXXXXXXXXXXXXXXXXXXXXXXXXXXXXXXXXXXXXXXXXXXX...      ",
"     ...XXXXXXXXooooooooXXXXXXXXXXXXXXXXXXXXXXXXXXXXXXX...      ",
"     ...XXXXXXXXooooooooXXXXXXXXXXXXXXXXXXXXXXXXXXXXXXX...      ",
"     ...XXXXXXXXoooooooooooXXXXXXXXXXXXXXXXXXXXXXXXXXXX...      ",
"     ...XXXXXXXXoooooooooooXXXXXXXXXXXXXXooooooXXXXXXXX...      ",
"     ...XXXooooooXXXXXXXXXXXXXXXXXXXXXXXXooooooXXXXXXXX...      ",
"     ...XXXooooooXXXXXXXXXXXXXXXXXXXXXXXXooooooXXXXXXXX...      ",
"     ..ooooooooooXXXXXXXXXXXXXXXXXXoooooooooooooooooooo...      ",
"     ..ooooooooooXXXXXXXXXXXXXXXXXXoooooooooooooooooooo...      ",
"     ..ooooooooooXXXXXXXXXXXXXXXXXXoooooooooooooooooooo...      ",
"     .....................XXXXXXXXX............oooooooo...      ",
"     .....................................................      ",
"     .....................................................      ",
"                                                                ",
"                                                                ",
"                                                                ",
"                                                                ",
"                                                                ",
"                                                                "
};