/* XPM */
static char *result[] = {
/* columns rows colors chars-per-pixel */
"32 32 152 2 ",
"   c #020202",
".  c #0A0A0A",
"X  c #110E0D",
"o  c #0E111C",
"O  c #111111",
"+  c #1A1A1B",
"@  c #151627",
"#  c #1B1E27",
"$  c #191D2E",
"%  c #191C35",
"&  c #242424",
"*  c #2A2522",
"=  c #2C2826",
"-  c #2A2A2A",
";  c #352B25",
":  c #34312F",
">  c #292832",
",  c #2D273B",
"<  c #22283D",
"1  c #333333",
"2  c #3A3432",
"3  c #3C393A",
"4  c #473930",
"5  c #483B35",
"6  c #57423A",
"7  c #5E483D",
"8  c #694739",
"9  c #6B4D3E",
"0  c #18254F",
"q  c #202640",
"w  c #252942",
"e  c #2C304F",
"r  c #353248",
"t  c #232C57",
"y  c #313150",
"u  c #2B3169",
"i  c #2D3672",
"p  c #2D367C",
"a  c #303C75",
"s  c #313E78",
"d  c #444444",
"f  c #494442",
"g  c #4E4448",
"h  c #4D4D4D",
"j  c #42465D",
"k  c #525252",
"l  c #5D5D5D",
"z  c #624D45",
"x  c #6C4D41",
"c  c #704E42",
"v  c #6D5245",
"b  c #63524A",
"n  c #735344",
"m  c #7A5644",
"M  c #735648",
"N  c #795748",
"B  c #7A5A4B",
"V  c #625955",
"C  c #695951",
"Z  c #625E5C",
"A  c #735F52",
"S  c #62605F",
"D  c #74655B",
"F  c #786458",
"G  c #4C4E66",
"H  c #5C5D64",
"J  c #55596C",
"K  c #5C5E68",
"L  c #43437D",
"P  c #4B547E",
"I  c #5B5F7B",
"U  c #5F6061",
"Y  c #616161",
"T  c #6A6664",
"R  c #6E6965",
"E  c #656B6C",
"W  c #6A6A6A",
"Q  c #756C66",
"!  c #716C68",
"~  c #79716C",
"^  c #727272",
"/  c #7C7C7C",
"(  c #865F3A",
")  c #9E7236",
"_  c #A0753E",
"`  c #825B47",
"'  c #835D4C",
"]  c #856354",
"[  c #896453",
"{  c #856658",
"}  c #846C5C",
"|  c #8F6958",
" . c #987D6C",
".. c #837B73",
"X. c #807F7E",
"o. c #937F71",
"O. c #A07D6B",
"+. c #B7883F",
"@. c #978172",
"#. c #9B8474",
"$. c #988678",
"%. c #A8826D",
"&. c #A48573",
"*. c #AB8572",
"=. c #A38876",
"-. c #B08A75",
";. c #B08D7A",
":. c #B7927D",
">. c #BA947D",
",. c #BE997E",
"<. c #DC8475",
"1. c #C29A7E",
"2. c #2E3B83",
"3. c #323C83",
"4. c #323D8B",
"5. c #36438D",
"6. c #2F4398",
"7. c #354391",
"8. c #394493",
"9. c #32439C",
"0. c #3A4698",
"q. c #3A489A",
"w. c #3647A5",
"e. c #364AA7",
"r. c #364AAA",
"t. c #384DAE",
"y. c #444882",
"u. c #4D5686",
"i. c #4D5887",
"p. c #4D5A8B",
"a. c #606587",
"s. c #728385",
"d. c #848483",
"f. c #8D8D8D",
"g. c #AC9D8C",
"h. c #B59483",
"j. c #B89581",
"k. c #B69984",
"l. c #8EA9AB",
"z. c #C29D85",
"x. c #CA9A80",
"c. c #C5A28B",
"v. c #CCA48B",
"b. c #DAA48E",
"n. c #D2AC94",
"m. c #D8A990",
"M. c #D9B097",
"N. c #D6B39C",
"B. c #DCB59B",
"V. c #E0B89E",
"C. c #DAB7A3",
"Z. c #DDB9A2",
/* pixels */
"W f./ ^ ^ ^ ^ ^ ^ ^ ^ ^ ^ ^ l + Y f./ ^ ^ ^ ^ ^ ^ ^ ^ ^ ^ ^ l . ",
"f.W Y Y Y Y Y Y Y Y Y Y Y T Y 3 X.W Y Y Y Y Y Y Y Y Y Y Y W W - ",
"^ Y Y Y Y Y Y Y S U Y Y Y V v x C S Y U Y Y U S Y Y Y Y Y Y l - ",
"^ Y Y Y Y Y Y Y Y Y Y Y Y v ) +.( V Y Y Y Y Y Y Y Y Y Y Y l d - ",
"^ Y Y Y Y Y U Y S Y S S v 9 _ _ ( z l Z Z S Y Y U S U Y Y l d - ",
"^ Y U U Y Y Y Y S Z z v B 9 8 x c M N x b Z Y Y Y Y Y Y Y l d - ",
"^ Y Y Y S Y U Y S b [ ,.v.-. .' *.v.v.%.N b S S Y Y Y Y Y l d - ",
"^ Y U Y Y Y U Y l M >.B.B.V.N.n.N.C.B.B.-.v Z Y Y Y Y U Y l d - ",
"^ Y Y Y S Y U Y S { c.n.n.C.C.C.C.N.n.n.z.{ Z Y U Y Z U Y l d - ",
"^ Y Y Y Y Y Y U T j.n.-.O.z.C.C.C.z. .;.n.:.T U Y Y Y Y Y l d - ",
"^ Y Y Y Y U Y U R z.M.} X F Z.C.Z.F X } M.z.R Y S Y Y Y Y l d - ",
"^ Y Y Y Y Y Y Y Z %.n.c.A =.Z.m.Z.&.A c.M.*.S Z U Y U Y Y l d - ",
"^ T Y Y Y Y S S b ] v.M.V.B.b.<.B.V.V.B.m.[ C S Y Y Y Y U l d - ",
"^ Y S H l l l l M ` | c.n.M.v.x.v.M.M.n.*.` B l l l l l l l d & ",
"l Y l d d d d d 9 m 8 B ;.h.z.M.n.j.j.O.9 m n f d d d d d d & . ",
"+ 3 1 1 1 1 1 : 6 9 5 : = w g j.} e > : 2 6 6 1 1 1 1 1 1 - .   ",
"U X.W W W E W W W W W k & # % ; + t # 1 E W W T W W W W W W k . ",
"f.^ T Y Y T Y Y Y Y l 1 - > y # q r = # d T Y T Y U W Y U Y W - ",
"^ T Y Y Y Y Y Y Y Y S 7 * O 0 < t $ & 4 C Y Y Y Y Y U Y Y U l - ",
"^ U Y U Y Y Y Y Y Y @.1.D o , w r @ 3 *.,.R U Y Y Y Y Y Y U d - ",
"^ U U U S U Y Y S W 1.#.H u L 5.y.7.u.Q z.@.S U Y U Y Y U U d - ",
"^ T Y U Y Y Y U U @.c.! H 3.9.9.6.r.p.Y $.g.E Y Y S Y U Y l d - ",
"^ U Y U Y Y S S R ,.k.T H 7.e.2.2.r.p.l ..l.s.l Y Y Y Y Y l d - ",
"^ T Y Y U Y U l Q =...T H q.t.s 2.r.p.U ~ @.o.l Y U Y Y U l d - ",
"^ T Y Y Y Y Y Y T Q l Y K 0.e.s 4.e.i.S U T Q Y Y Y Y Y Y l d - ",
"^ U Y U U Y U Y Y U Y U K 8.w.a 4.w.i.S U Y U Y l Y U S U l d - ",
"^ E U Y Y Y Y Y Y Y Y Y K 3.9.a p 4.u.S Y Y Y l Y Y Y Y Y l d - ",
"^ U U Y Y U Y Y U S Y Y l i 4.a u 4.P Y U Y Y Y Y Y Y Y Y l d - ",
"^ Y S Y Y Y Y Y U Y U Y H G a.j G I J Y U Y Y Y Y Y Y Y Y l d - ",
"^ Y U l l l l l l l l l T d.d.k ^ f.^ H l l l l l l l l l l d & ",
"l T l d d d d d d d d d h W h & l / W f d d d d d d d d d 3 & . ",
"O - - - - - - - - - - & - & .   . - 1 - - - - - - - - - - & .   "
};