/* XPM */
static char *result[] = {
/* columns rows colors chars-per-pixel */
"32 32 7 1 ",
"  c #6C4130",
". c #7A5444",
"X c #8A523B",
"o c #D86E26",
"O c #FD7D28",
"+ c #995A41",
"@ c None",
/* pixels */
"@@@@@@@@@@@@@@@@@@@@@@@@@@@@@@@@",
"@@@@@@@@@@@@@@@@@@@@@@@@@@@@@@@@",
"@@@@@@@@@@@@@@@@@@@@@@@@@@@@@@@@",
"@@@@@@@@@@@@@@@@@@@@@@@@@@@@@@@@",
"@@@@@@@@@@@@@@@@@@@@@@@@@@@@@@@@",
"@@@@@@@@@@@@@@@@@@@@@@@@@@@@@@@@",
"@@@@@@@@@@@@@@@@@@@@@@@@@@@@@@@@",
"@@@@@@@@@@@@@@@@@@@@@@@@@@@@@@@@",
"@@@@@@@@@@@@@@@@.XX@@@@@@@@@@@@@",
"@@@@@@@@@@@@@@@@X@@@@@@@@@@@@@@@",
"@@@@@@@@@@@@@@@@X@@@@@@@@@@@@@@@",
"@@@@@@@@@@@@@@@+ @@@@@@@@@@@@@@@",
"@@@@@@@@@ooOOooOoOOooOO@@@@@@@@@",
"@@@@@@@@oOOOoOOOoooOoooO@@@@@@@@",
"@@@@@@@@oOOOoOOOoooOoooO@@@@@@@@",
"@@@@@@@@oOOOoOOOoooOoooO@@@@@@@@",
"@@@@@@@@oOOOoOOOoooOoooO@@@@@@@@",
"@@@@@@@@oOOOoOOOoooOoooO@@@@@@@@",
"@@@@@@@@oOOOoOOOoooOoooO@@@@@@@@",
"@@@@@@@@oOOOoOOOoooOoooO@@@@@@@@",
"@@@@@@@@oOOOoOOOoooOoooO@@@@@@@@",
"@@@@@@@@oOOOoOOOoooOoooO@@@@@@@@",
"@@@@@@@@@ooOOooOoOOooOO@@@@@@@@@",
"@@@@@@@@@@@@@@@@@@@@@@@@@@@@@@@@",
"@@@@@@@@@@@@@@@@@@@@@@@@@@@@@@@@",
"@@@@@@@@@@@@@@@@@@@@@@@@@@@@@@@@",
"@@@@@@@@@@@@@@@@@@@@@@@@@@@@@@@@",
"@@@@@@@@@@@@@@@@@@@@@@@@@@@@@@@@",
"@@@@@@@@@@@@@@@@@@@@@@@@@@@@@@@@",
"@@@@@@@@@@@@@@@@@@@@@@@@@@@@@@@@",
"@@@@@@@@@@@@@@@@@@@@@@@@@@@@@@@@",
"@@@@@@@@@@@@@@@@@@@@@@@@@@@@@@@@"
};