/* XPM */
static char *ce7c7f6d8a614f72d727769c47cace1awTfAl5wZ8CG3Zurk[] = {
/* columns rows colors chars-per-pixel */
"64 64 177 2 ",
"   c None",
".  c #050505",
"X  c #0F0807",
"o  c #0A0A0A",
"O  c #110B0A",
"+  c #1F0B08",
"@  c #100F10",
"#  c #151314",
"$  c #191719",
"%  c #1C1B1C",
"&  c #200C0B",
"*  c #201F20",
"=  c #242424",
"-  c #292629",
";  c #2C2C2C",
":  c #312F31",
">  c #3D2F35",
",  c #343234",
"<  c #3B3136",
"1  c #3A3539",
"2  c #3C3A3C",
"3  c #4C2E2D",
"4  c #5C2C24",
"5  c #532E2B",
"6  c #5B2E29",
"7  c #4C302E",
"8  c #53322F",
"9  c #5C312D",
"0  c #452F34",
"q  c #453236",
"w  c #4B3335",
"e  c #4C3936",
"r  c #4B3639",
"t  c #44393A",
"y  c #4C3A3B",
"u  c #533434",
"i  c #5B3432",
"p  c #5E3837",
"a  c #533739",
"s  c #533B3B",
"d  c #5B3C3C",
"f  c #662B24",
"g  c #6D2E26",
"h  c #632E2A",
"j  c #6C2F2A",
"k  c #732D25",
"l  c #7D2E24",
"z  c #722F2A",
"x  c #65312B",
"c  c #6C312C",
"v  c #723026",
"b  c #7C3126",
"n  c #74332C",
"m  c #7C322A",
"M  c #643634",
"N  c #6A3432",
"B  c #643935",
"V  c #6D3A34",
"C  c #643D39",
"Z  c #6B3E3B",
"A  c #743631",
"S  c #793732",
"D  c #7B3934",
"F  c #723E3B",
"G  c #56423E",
"H  c #5B403D",
"J  c #64413F",
"K  c #6C403F",
"L  c #73423F",
"P  c #473D40",
"I  c #434243",
"U  c #4C4445",
"Y  c #4C4749",
"T  c #4E494B",
"R  c #564345",
"E  c #5A4245",
"W  c #544649",
"Q  c #5A4549",
"!  c #534A4D",
"~  c #5B4B4E",
"^  c #564D51",
"/  c #5B4E52",
"(  c #5E5055",
")  c #5F5158",
"_  c #664241",
"`  c #6B4444",
"'  c #6A4749",
"]  c #654B4E",
"[  c #69494A",
"{  c #734442",
"}  c #624E52",
"|  c #625356",
" . c #695356",
".. c #655359",
"X. c #6B555B",
"o. c #6E595D",
"O. c #705456",
"+. c #70565D",
"@. c #725A5E",
"#. c #745C60",
"$. c #961F0F",
"%. c #97210F",
"&. c #8F2313",
"*. c #8D2B1D",
"=. c #952212",
"-. c #992413",
";. c #942718",
":. c #982719",
">. c #932C1D",
",. c #992C1C",
"<. c #832E24",
"1. c #8B2E22",
"2. c #932E22",
"3. c #9B2F23",
"4. c #843125",
"5. c #893225",
"6. c #8E3025",
"7. c #8C3025",
"8. c #8E3427",
"9. c #8C3125",
"0. c #833328",
"q. c #873329",
"w. c #873428",
"e. c #87362D",
"r. c #84342A",
"t. c #8C3529",
"y. c #8E362C",
"u. c #8C3429",
"i. c #8D382D",
"p. c #933023",
"a. c #913125",
"s. c #903226",
"d. c #933225",
"f. c #943226",
"g. c #903427",
"h. c #943325",
"j. c #9B3123",
"k. c #993325",
"l. c #9D3325",
"z. c #993526",
"x. c #9D3427",
"c. c #9C3425",
"v. c #9C3325",
"b. c #903528",
"n. c #973528",
"m. c #943529",
"M. c #943529",
"N. c #9B3529",
"B. c #9D362A",
"V. c #9E3629",
"C. c #9C3629",
"Z. c #9F382A",
"A. c #993B2F",
"S. c #9D382B",
"D. c #843C32",
"F. c #973A30",
"G. c #A03526",
"H. c #A03729",
"J. c #A1352B",
"K. c #A1372B",
"L. c #A0372A",
"P. c #A0362A",
"I. c #A1392B",
"U. c #A1382B",
"Y. c #A2392B",
"T. c #A2382A",
"R. c #A1392B",
"E. c #9D4539",
"W. c #A14435",
"Q. c #8B7F7D",
"!. c #967572",
"~. c #8E8381",
"^. c #918786",
"/. c #968A85",
"(. c #958F8E",
"). c gray59",
"_. c gray59",
/* pixels */
"                                                                                                                                ",
"                                                            (                                                                   ",
"                                                        / ! ! /                                                                 ",
"                                                      ^ y w w y ~ /                                                             ",
"                                                    ~ r 5 9 ).6 8 E /                                                           ",
"                                                / Q f 6 h f ).g x 9 R /                                                         ",
"                                              ^ r 3 4 k ).l 4.b v ).x 6 Q                                                       ",
"                                            ~ s 5 ).l l 5.8.b.).5.4.k c h E                                                     ",
"                                          / E ).k l 5.).m.B.B.).g.5.b ).j i /                                                   ",
"                                          / _ n <.).d.).J.).Z.B.N.m.5.).z c ~                                                   ",
"                                          ( } 1.1.d.k.J.I.I.I.I.J.).z.d.1.` /                                                   ",
"                                            ( ;.2.).l.J.).I.I.).I.).z.f.;.}                                                     ",
"                ~ R R E Q Q E Q             ( } >.f.).B.).I.I.I.J.J.z.f.' (                   W Q Q R R W                       ",
"                E p M ).x 9 i 8 d Q Q E Q       [ 6.p.x.I.I.I.I.I.).x.2.}     ( ( ^ W s e 7 3 5 9 N J Q !                       ",
"                _ ).n n m m j x 4 6 6 i u E     } D t.z.J.).I.I.I.).l.>.}   / ~ Q d u 9 9 9 6 g ).m m <.}                       ",
"                ' D m t.b.).5.4.l l k h x 6 d   ] D q.m.I.).I.I.I.J.x.>.} / s 8 9 x x z v ).).5.6.2.).=.(                       ",
"                ] e.y.N.).A.F.m.).d.6.l k j x K [ 5.1.B.I.I.I.I.I.I.J.=.=.B x v n ).m r.w.t.b.g.f.j.-.$.(                       ",
"                ] 6.).B.B.E.!.N.).N.f.d.5.4.b w.1.;.B.. @ @ @ o o o o . &.l b r.q.).t.t.).m.m.).x.).-.( (                       ",
"                } 1.2.k.).W./.I.J.J.B.z.).).8.6.b.. o $ % = = * * % $ $ O <.l 5.8.b.m.Z.).I.).J.x.j.-.(                         ",
"                ( ] *.2.x.I.I.I.).I.).J.B.N.m.d.N.o $ = = = - ; ; = = = % O m.N.N.I.).I.I.I.I.J.).).=.(                         ",
"                  ( ' 2.).J.I.I.).I.I.).I.).B.B.. $ = = - ; , , , ; ; ; = $ I.I.I.).I.I.).I.).).j.-.(                           ",
"                    } >.3.j.).I.I.I.I.I.I.I.).I.o % = ; ; , 2 2 2 , , ; ; = o I.I.I.I.).I.I.G.l.:.=.(                           ",
"                    ( =.:.,.3.x.J.).J.).).I.I.I.o * = , , 2 I I I 2 , ; ; = o Z.).J.I.I.I.J.G.j.-.( (                           ",
"                    ( ( =.-.).).N.).l.l.G.J.I.I.o % = ; : , 2 I I 2 , ; = % O d.N.B.).).G.).).:.$.(                             ",
"                      ( ( =.%.=.>.2.,.,.k.l.x.J.. $ = ; ; , 2 2 2 , , ; = # + 1.j.j.j.d.h.k.l.=.( (                             ",
"                        ( ( $.( } ] =.*.1.2.,.k.I.. $ = - ; : , ; ; ; ; $ & 2.&.*.5.5.w.q.>.=.$.(                               ",
"                          ( ( ( ( ( } ' V 4.6.k.J.Y.. $ = = ; ; ; = = % X 1.>.*.V C d C H ] ( ( (                               ",
"                                        C V 6.l.J.I.I.. o $ # # # o . . B.d.2.1.B H                                             ",
"                                ( ( / ' H 5.2.x.I.I.I.I.I.I.Z.Z.I.I.I.I.I.B.x.>.4.d G d                                         ",
"                              } } =.=.>.d.2.k.B.I.I.).I.I.I.N.m.B.I.I.I.).I.B.l.2.2.1.4.F [                                     ",
"                            ' ` 1.>.j.l.x.x.).).I.I.I.I.I.J.q.N w.B.I.I.I.I.J.B.x.z.f.6.q.L [                                   ",
"                          d Z D 8.j.).).J.J.I.I.I.).I.I.J.m.n w j f.B.I.I.I.).).J.).x.j.2.r.{ ]                                 ",
"                        a d B r.8.z.J.I.I.).).I.I.).I.J.x.w.q 1 q 1.x.I.I.I.I.I.I.).J.).k.i.D.{                                 ",
"                        e a M r.6.).).I.I.I.I.I.I.I.J.x.m.n q 1 < n m.J.).).I.I.I.I.I.).k.(.e.D `                               ",
"                        r s M ).q.N.I.I.I.I.I.I.I.).N.f.r.q < e > 0 8.x.J.I.I.).).I.).B.f.d.w.S F                               ",
"                        r e M n r.m.I.).I.I.).I.B.).b.8.n w s s r q m k.x.J.I.I.).I.I.).).b.m A V                               ",
"                        q r u N m b.I.).I.I.).N.b.t.q.m q s Q ] Q r q q.~.z.).I.I.).B.N.).8.n N M                               ",
"                        q q a N ).t.N.N.B.N.m.t.q.r.m < y ~ O.@.+.Q q < V D m.B.I.B.).N.b.q.N M i                               ",
"                          q e M n w.t.b.b.t.q.r.m j < t Q  .@.@.#.@.W r 1 N S ^.).m.m.).q.Q.B i w                               ",
"                          q w u N ^.r.^.r.m m ).j < t W } X.@.#.#.@.| W r 1 M V m (.~.D A M i u 0                               ",
"                            w w i B V V N c v x 1 U W / | o.@.#.#.@. .~ U , 1 p N Z ` K _ d u w <                               ",
"                            q w u i i i i i 9 1 P W ~ | X.o.@.#.@.@.X.+.! U , 1 u p p d d a e q                                 ",
"                              > w w u u u w 1 1 W ! / | X.o.@.#.#.o.X.| | ! U 1 , w u u s r < 1                                 ",
"                                            ^ ( ^ / ( | X.o.#.#.#.o. .| / ! W                                                   ",
"                                            | | | | | | X.o.o.o.@.X.( ^ ! ! ~ ~                                                 ",
"                                           .| } ( /   | ..X.X.X...( !   ! ! ^ /                                                 ",
"                                        X...( ( ^     ( ( | ..| ( ! Y   T ! ^ (  .                                              ",
"                                       .| | ^ !         ! ( | ( / T       I ^ |  . .                                            ",
"                                      | | / !         W ~ ( | ( ( ^         T ! X.X.X.                                          ",
"                                    | | /           ! ^ / | ....| | |           @.X.X.                                          ",
"                                    ../ !         ! ^ / ( ..X. .X.X...|           X.X.                                          ",
"                                  ..o.+.        Y ^ / | | | | ^ ^ | X...(         ..X...                                        ",
"                                  ..o.|         ! / ( | |       ! ( X...(         ..X...                                        ",
"                                  ..@.| (       ^ ( ( | (       T / ....|       ( ..X...                                        ",
"                                    +...( (     / / | | (       Y ! ( ..|     ( ( ..X...                                        ",
"                                  #.@.X.        ^ ( | |           T ^ | |           ..X.(                                       ",
"                                  | @.          ^ / | |           / ! | |             ..|                                       ",
"                                    #.@.          ^ |               ! ..            ..o.                                        ",
"                                    | #.          ^ |               ! |             o.|                                         ",
"                                      (         ! ^ |               ^ |             |                                           ",
"                                              ! ^ / | |           W ^ | ..                                                      ",
"                                            ^ ^ | | ..| /       ! ^ | X.X.| (                                                   ",
"                                          ! ^ ( | ..X.| (     T ! / ..o.o.X.| (                                                 ",
"                                        ^ T ^ ( ..X...| ) (   ^ / | ..X.X...) ( (                                               "
};