/* XPM */
static char *_e96bf1c67824388f30d60e4968d03bfR3odRkjdp4LK6Kxq[] = {
/* columns rows colors chars-per-pixel */
"64 64 153 2 ",
"   c None",
".  c #000000",
"X  c #0D0300",
"o  c #100400",
"O  c #1A0500",
"+  c #200700",
"@  c #220900",
"#  c #2B0A00",
"$  c #350D00",
"%  c #380E00",
"&  c #5F1800",
"*  c #621800",
"=  c #8B2300",
"-  c #9D2400",
";  c #A52C00",
":  c #AF2C00",
">  c #B12900",
",  c #BC2A00",
"<  c #BB3300",
"1  c #CD2C00",
"2  c #D22B00",
"3  c #C33200",
"4  c #CC3400",
"5  c #C63B00",
"6  c #CD3800",
"7  c #D33400",
"8  c #D83700",
"9  c #D43B00",
"0  c #DA3C00",
"q  c #CE4100",
"w  c #D44200",
"e  c #DC4300",
"r  c #D74D00",
"t  c #DD4B00",
"y  c #DD5300",
"u  c #DF5C00",
"i  c #E04E00",
"p  c #E15400",
"a  c #E05D00",
"s  c #E05E00",
"d  c #E15E00",
"f  c #E05F00",
"g  c #E25E00",
"h  c #E25F00",
"j  c #E55D00",
"k  c #E55F00",
"l  c #E65E00",
"z  c #E75F00",
"x  c #E25A00",
"c  c #DF6400",
"v  c #E26200",
"b  c #E36200",
"n  c #E26300",
"m  c #E66000",
"M  c #E66100",
"N  c #E46300",
"B  c #E56300",
"V  c #E66300",
"C  c #E06400",
"Z  c #E16400",
"A  c #E06500",
"S  c #E36400",
"D  c #E26500",
"F  c #E16700",
"G  c #E26600",
"H  c #E36600",
"J  c #E26700",
"K  c #E46400",
"L  c #E56400",
"P  c #E46500",
"I  c #E56500",
"U  c #E66400",
"Y  c #E76500",
"T  c #E46600",
"R  c #E56600",
"E  c #E56700",
"W  c #E76600",
"Q  c #E76700",
"!  c #E36400",
"~  c #E16800",
"^  c #E26800",
"/  c #E36800",
"(  c #E36900",
")  c #E76800",
"_  c #E66900",
"`  c #E76900",
"'  c #E46A00",
"]  c #E56A00",
"[  c #E56B00",
"{  c #E66A00",
"}  c #E76A00",
"|  c #E66B00",
" . c #E76B00",
".. c #E36C00",
"X. c #E36D00",
"o. c #E26F00",
"O. c #E36F00",
"+. c #E46D00",
"@. c #E66C00",
"#. c #E76C00",
"$. c #E66D00",
"%. c #E76D00",
"&. c #E46E00",
"*. c #E76E00",
"=. c #E76F00",
"-. c #E46C00",
";. c #E17100",
":. c #E27000",
">. c #E37200",
",. c #E47000",
"<. c #E47100",
"1. c #E57100",
"2. c #E67000",
"3. c #E77000",
"4. c #E67100",
"5. c #E77100",
"6. c #E47200",
"7. c #E57200",
"8. c #E47300",
"9. c #E57300",
"0. c #E67200",
"q. c #E77200",
"w. c #E67300",
"e. c #E77300",
"r. c #E37400",
"t. c #E27500",
"y. c #E27600",
"u. c #E37700",
"i. c #E47500",
"p. c #E57500",
"a. c #E67400",
"s. c #E67500",
"d. c #E77500",
"f. c #E47700",
"g. c #E57700",
"h. c #E67600",
"j. c #E77600",
"k. c #E67700",
"l. c #E77700",
"z. c #E67300",
"x. c #E37900",
"c. c #E37A00",
"v. c #E47800",
"b. c #E47900",
"n. c #E67800",
"m. c #E77800",
"M. c #E67900",
"N. c #E77900",
"B. c #E57A00",
"V. c #E67A00",
"C. c #E77A00",
"Z. c #E57B00",
"A. c #E38300",
/* pixels */
"                                                                                                                                ",
"      . . . . . .                                   .         .               . . . .                               . . .       ",
"                . . .                             . .         . .           . .                   . .           . . .           ",
"                  . . .                         . .             . .         .                 . . .           . .               ",
"                    . . . . . . . .             . .             . . . .   . .               . .             . .                 ",
"                          . . . . . . .       . . .               . . . . . .             . .             . .                   ",
"                        . . . . . . . . .     . . .               . . . . . .           . . .         . . . .                   ",
"                  . . . . . . . . . . . . . . . . .                 . . . .             . .       . . . .                       ",
"              . . . . . . . .       . . . . . . . . .                 . .               . .     . . . .                         ",
"          . . .       . . .           . . . . . . . .                 . .               . . . . . . .                           ",
"    . . . .                               . . . . . . .               . .             . . . . . . .                             ",
"                                              . . . . . .           . . .             . . . . . .                               ",
"                                                . . . . . .         . .             . . . . . .                                 ",
"  . . . . . . .                                 . . . . . .         .         . . . . . . . .                                   ",
"              . .                               . . . . . . .     . . . . . . . . . . . . .                                     ",
"                . .                               . . . . . . . . . . . . . . . . . . .             . . . .                     ",
"                  . . .                         . . . 2 2 2 . . . . . . . . . . . . .       . . . . . . . . .                   ",
"                      . .                       . . . 2 2 2 1 % # 1 2 2 2 2 . . . . . . . . . . . . . . . . . .                 ",
"                . . . . . . .             . . . . . 2 2 9 9 6 < < 6 9 0 9 2 2 . . . . . . . .             . . . .               ",
"              . . . . . . . . . . . . . . . . . . 2 7 e t t e w q w t t t e 2 2 . . . . . .                 . . . .             ",
"            . . . . . . . . . . . . . . . . . . 2 7 e t p p p t t i p p p t 0 2 . . . . .                     . . .             ",
"            . . . . . . . . . . . . . . . . O , 7 e p x x x x x x x k x p p e 7 . . . .                           . .           ",
"          . . . . .               . . . . + * : 9 t x d b V V U U U U k x p i 9 2 . . . . . .                       .           ",
"          . . .                     . . . # = < w y d S U ` ` ` ` 6.` U k x p t 7 2 . . . . . . . .                 . . . .     ",
"        . .                         . . . . , 9 t d b U ` &.` ` *.5.&.` Q k p t 0 2 . . . . . . . . . . . .               . .   ",
"      . .                             . X @ 3 w y S ^ ` &.&.&.` 6.6.*.*.Q k x p e 2 2 . . . . . . . . . . . . . .               ",
"      .                             . o $ = < r u ^ O.6.6.6.6.6.6.6.*.*.Q z x p e 2 2 . . . . .                 . . .           ",
"                                  . . O & ; 5 t x S &.6.s.s.s.s.s.5.6.&.Q V x p e 2 . . . . .                           . . .   ",
"                            . . . . . X - < w t x U 6.6.V.V.V.s.s.s.6.&.` V x p 0 2 . . . .                         . . .       ",
"                  . . . . . . . . . . . 1 4 t p x S 6.r.V.V.V.s.s.s.s.6.` V p t 2 2 . . .                         . .           ",
"              . . . . . . . . . . . . . 2 2 e y d S &.6.s.s.s.s.s.s.6.6.` V x e 2 . . .                       . . .             ",
"              . . . .     . . . . . . . . 1 9 y S ^ &.6.6.6.6.6.6.6.6.6.` U x e 2 . . . .                 . . . . .             ",
"            . . .             . . . . . . @ 6 y u S O.6.6.6.6.5.5.5.6.6.` U p 0 2 . . . . . .       . . . . . . . .             ",
"          . .                     . . . . 1 9 r u S O.&.6.6.6.6.5.5.6.6.` U x e 2 2 . . . . . . . . . . . . . . . . . . . . .   ",
"          .                         . . 2 4 w t u S O.6.6.6.6.6.6.6.5.6.6.U d t 7 2 . . . . . . . . . . . . . . . .             ",
"  . . . . .                       . . 2 2 9 t y d :.r.s.s.s.6.6.6.5.s.s.V.:.b y 0 2 . . . . .       . . . .                     ",
"                                . . . 2 7 e t p S :.r.r.V.V.V.s.s.s.s.V.c.6.^ x e 2 . . . .           . .                       ",
"                      . . . . . . . . 2 0 t y x S :.6.s.V.V.V.s.V.s.m.V.s.6.^ x t 7 2 . .           . . .                       ",
"                  . . . . . . . . . . 2 9 t p x S O.6.6.s.V.s.s.s.s.6.5.*.&.S x t 7 2 . .         . . .                         ",
"                  . . . . . . . . . . 2 7 e y x b &.6.s.s.s.s.s.6.5.5.6.&.&.S p t 2 2 . .     . . . .                           ",
"                . . . . . . . . . . . . 2 9 t u b ` 6.6.s.s.6.6.6.6.6.6.6.6.S y 9 1 2 . .   . . . . .                           ",
"              . . . . .         . . . . 2 2 w y ^ O.s.s.s.s.s.6.6.6.6.V.V.r.^ y 4 o . . . . . . . .                             ",
"          . . . . . . .           . . . . 2 7 y c O.r.c.V.V.V.s.s.V.V.Z.c.:.c e 1 . . . . . . . . .                             ",
"      . . .   . . . .                 . . . 1 r u ^ :.c.A.c.c.Z.Z.Z.Z.V.6.U p e 2 . . . . . . . .                               ",
"  . . .       . . . . . . . . . .         . . 9 u b ^ 6.6.V.V.V.V.V.s.6.&.V p e 2 . . . . . . .                                 ",
"            . . . . . . . . . . . . .       . 7 t d b U U 6.6.6.6.s.6.&.U x p i 7 2 . . . . . .                                 ",
"            . . . . . . . . . . . . . . .   . 2 e i p k k b S S ^ ` Q U k x p t 8 2 . . . . .                     . . . . . .   ",
"              . . . . .             . . . . . 2 7 e t y p p d u d b b d x p i t 7 2 . . . . .                   . .             ",
"              . . .                       . . 2 2 7 0 e e e t t y p x p p t e 0 2 2 . . . .                     .               ",
"              . .                           . . 2 2 2 2 1 , > 3 9 e t t t e 9 2 2 . . . . .                 . . .               ",
"              . .                             . . . 2 2 . X O X 2 7 0 0 9 7 2 2 . . . . . . . .     . . . . . .                 ",
"              . .                               . . . . . . . . 2 2 2 2 2 2 2 . . . . . . . . . . . . . . . .                   ",
"              . .                             . . . . . . . . . . 2 2 2 . . . . . . . . . . . . . . . . . .                     ",
"          . . .                             . . . . . . . . . . . . . . . . . . . .   . . . . . . . . . .                       ",
"      . . .                               . . . . . . . . . . . . . . . . . . . . .         . . . . . .                         ",
"  . . .                                 . . . . . . .     . . . . . . . . . . . . . .         . . . . .                         ",
"                                  . . . . . . . . . .       . . . . . . . . . . . . .               . . .                       ",
"                        . . . . . . . . . . . . .             . . .           . . . . .               . . .                     ",
"                      . . . . . . . . . . .                     . .             . . . .                   . . .                 ",
"                    . . .                                       . .               . . . .                   . . . . .           ",
"                  . .                                             .                 . . . .                   . .   . . . . .   ",
"            . . . .                                               . .                 . . . . .                                 ",
"      . . . .                                                       .                     . . . . .                             ",
"                                                                    .                             . .                           "
};