/* XPM */
static char *result[] = {
/* columns rows colors chars-per-pixel */
"32 32 3 1 ",
"  c black",
". c #4D6DF3",
"X c None",
/* pixels */
"XXXXXXXXXXXXXXXXXXXXXXXXXXXXXXXX",
"XXXXXXXXXXXXXXXXXXXXXXXXXXXXXXXX",
"XXXXXXXXXXXXXXXXXXXXXXXXXXXXXXXX",
"XXXXXXXXXXXXXXXXXXXXXXXXXXXXXXXX",
"XXXXXXXXXXXXXXXXXXXXXXXXXXXXXXXX",
"XXXXXXXXXXXXXXXXXXXXXXXXXXXXXXXX",
"XXXXXXXXXXXXXXXXXXXXXXXXXXXXXXXX",
"XXXXXXXXXXXXXXXXXXXXXXXXXXXXXXXX",
"XXXXXXXXXXXX.........XXXXXXXXXXX",
"XXXXXXXXXXX...........XXXXXXXXXX",
"XXXXXXXXXXX...........XXXXXXXXXX",
"XXXXXXXXXXX...........XXXXXXXXXX",
"XXXXXXXXXXX...........XXXXXXXXXX",
"XXXXXXXXXXX...........XXXXXXXXXX",
"XXXXXXXXXXX...........XXXXXXXXXX",
"XXXXXXXXXXX.. ........XXXXXXXXXX",
"XXXXXXXXXXX..  .......XXXXXXXXXX",
"XXXXXXXXXXX.. ........XXXXXXXXXX",
"XXXXXXXXXXX...........XXXXXXXXXX",
"XXXXXXXXXXX...........XXXXXXXXXX",
"XXXXXXXXXXX...........XXXXXXXXXX",
"XXXXXXXXXXX...........XXXXXXXXXX",
"XXXXXXXXXXXXXXXXXXXXXXXXXXXXXXXX",
"XXXXXXXXXXXXXXXXXXXXXXXXXXXXXXXX",
"XXXXXXXXXXXXXXXXXXXXXXXXXXXXXXXX",
"XXXXXXXXXXXXXXXXXXXXXXXXXXXXXXXX",
"XXXXXXXXXXXXXXXXXXXXXXXXXXXXXXXX",
"XXXXXXXXXXXXXXXXXXXXXXXXXXXXXXXX",
"XXXXXXXXXXXXXXXXXXXXXXXXXXXXXXXX",
"XXXXXXXXXXXXXXXXXXXXXXXXXXXXXXXX",
"XXXXXXXXXXXXXXXXXXXXXXXXXXXXXXXX",
"XXXXXXXXXXXXXXXXXXXXXXXXXXXXXXXX"
};