/* XPM */
static char *_fb0499bd2e749ca8d0a732184e7b178ANhZbi4U3tQMd5C5[] = {
/* columns rows colors chars-per-pixel */
"32 32 93 2 ",
"   c #020202",
".  c #090201",
"X  c #070808",
"o  c #0B0B0B",
"O  c #140502",
"+  c #1B0602",
"@  c #1A0E0A",
"#  c #131414",
"$  c #1C1C1C",
"%  c #210704",
"&  c #230A05",
"*  c #2D0B05",
"=  c #320B06",
"-  c #3D0D07",
";  c #3C0E08",
":  c #3F1007",
">  c #3F110B",
",  c #232323",
"<  c #282728",
"1  c #2B2B2B",
"2  c #2E3131",
"3  c #343434",
"4  c #383738",
"5  c #363939",
"6  c #3C3C3C",
"7  c #400F09",
"8  c #441209",
"9  c #4B150B",
"0  c #54140B",
"q  c #5E170D",
"w  c #441610",
"e  c #62170D",
"r  c #68170D",
"t  c #651A0E",
"y  c #6B1A0E",
"u  c #6C210C",
"i  c #6E2014",
"p  c #762815",
"a  c #3F3F40",
"s  c #444444",
"d  c #4C4C4C",
"f  c #545454",
"g  c #5B5B5B",
"h  c #626262",
"j  c #6B6B6B",
"k  c #727272",
"l  c #872212",
"z  c #912514",
"x  c #902A12",
"c  c #A02E16",
"v  c #A92F17",
"b  c #B32D18",
"n  c #B53019",
"m  c #BE341A",
"M  c #B33819",
"N  c #BC3B1A",
"B  c #C0341B",
"V  c #C33C1B",
"C  c #CC3B1D",
"Z  c #D53B1D",
"A  c #BF401B",
"S  c #CB451D",
"D  c #D6421E",
"F  c #DA431F",
"G  c #D64B1F",
"H  c #D94B1F",
"J  c #DF4F20",
"K  c #DD5120",
"L  c #DE5721",
"P  c #DC5821",
"I  c #DF5E21",
"U  c #E15721",
"Y  c #E15B22",
"T  c #E05C22",
"R  c #DE6022",
"E  c #DE6422",
"W  c #DE6823",
"Q  c #E06022",
"!  c #E46323",
"~  c #E36623",
"^  c #E36823",
"/  c #E36C23",
"(  c #E46C23",
")  c #E16F24",
"_  c #E46D24",
"`  c #E37324",
"'  c #E47224",
"]  c #E37725",
"[  c #E47524",
"{  c #E27925",
"}  c #838383",
"|  c gray52",
" . c gray55",
/* pixels */
"j j s 6 d j k k k k k k h f g X 4 } | d 6 g k k j j k k h 6 f 6 ",
" .h f f , , f g g h h g 1 s j $ 1 j f 1 f g h d 1 d h s 1 s h d ",
"k h h h g 4 $ X o 3 g s o f g 1 X o # 3 h h 6 , f g 6 , g h h s ",
"k h h g s 1 X   X   $ $ X f s 1 1 X X s h g # s d $ $ d h h f 6 ",
"k g s 1 3 $ o s f ,       1 s 1 d 4 1 h h f o , X $ g h h h f 4 ",
"j s 6 f h g g h h g s $   X 1 1 d , 4 h h 3     , g h h h h f 4 ",
"g 6 6 6 g h h h h h h f X   X , 6 , d s 1 X   , g h h h h h f 4 ",
"j f f 6 1 f h h h h h g $ . O X o   X     X , d f 4 4 g h h f 4 ",
"k h h h 6 $ 6 g h h g d o e b 9 8 r q O   X o # # X   $ g h f 4 ",
"k h h s o X   $ 3 3 $ X 8 B F V V F F l .     1 f f 6 X , g f 4 ",
"k h f o   X X X       : m K L L L P K B +   X 4 h h h s $ s f 4 ",
"k h 3 o 3 f f g 6   + x G I ~ ~ ^ ~ Y H l .   $ 4 f f h f 1 3 1 ",
"k s 1 f h h h h g $ & M P ~ / ( _ ( Q L C 7     X # $ 4 s f 6 , ",
"k f f h g g g g a @ u S R ) ` ' ' _ ! U C 7   $ f f f d 4 s 3 , ",
"g h g s 3 , , o   O v G R ` ] ] ] ` ~ L b O   < s s s s 3 $ $ # ",
"$ 4 4 # X # # X   . l G E ) ` ` ' ` ~ J y   X , 3 , $ o X 1 , X ",
"h } d , d j j f ,   0 S R / ' ' ' ` ~ J z .   $ 1 X     X 4 6 $ ",
"j s 1 f h h h h 6 > m G E ` ` ' ' ` ) P m O   $ 1 X X 1 4 f g d ",
"j f f h g s 3 1 X r F L W ] ] [ [ ] ` Q C - $ g g # 1 h h h h s ",
"k h h h 3         q D L W ` ] [ ' ' ) I F r 2 d $ $ g h h h f 6 ",
"k h g 6 X X 1 1 X + n K W ` ] ' ' ` ` I c = # X   s h h h h f 4 ",
"j s 1 $   $ f g s $ 9 A E ] { { { { ) K t       , g h h h h f 4 ",
"g 6 d $   X X X $ s 5 p P ^ ` ] ] ` ~ J z .   o f h h h g f d 3 ",
"k h g $   o 1 3 1 # $ i F K T R ~ Q P J m O   3 h h h g 1 4 3 1 ",
"k h h 3 $ f h h h g 6 w b Z N N G K G Z l . X d h g f 1 4 h f 4 ",
"k h h 1 1 h h h h h h 6 & 0 % * b Z B l O     o 1 o X , g h f 4 ",
"k g s , s h h h h h g ,         ; e % . X $ X       , g h h f 4 ",
"g 1 4 f h h h h g f ,     # #           X s f , X X d h h h f 4 ",
"j g h h h g 3 1 $ X   X $ d s o X 1 3 $   $ g g f , , f h h f 4 ",
"k h h h f , $ 1 1 1 3 d g g s $ # h h g $   6 h h g 6 # 1 s d 3 ",
"g h f 1 $ 1 s s s s s s s s , X X d h f 6 # X , 6 s s 1 , , , o ",
"# , $ $ , 1 1 1 1 1 1 1 1 , X     # 1 1 1 , $ # # $ 1 1 1 1 $   "
};