/* XPM */
static char *_ae2a97d31d645f291cea3703cc6ffcbjpSjgeBUTtgsCSLy[] = {
/* columns rows colors chars-per-pixel */
"64 64 4 1 ",
"  c None",
". c black",
"X c #B00C14",
"o c #ED1C24",
/* pixels */
"                                                                ",
"                                                                ",
"                                                                ",
"                                                                ",
"                                                                ",
"     .....................................................      ",
"     .....................................................      ",
"     ...ooo..................................XXXXXXXX.....      ",
"     ...oooXXXXXXXXXXXXXXoooooXXXXXXXXXooooooXXXXXXXXoo...      ",
"     ...oooXXXXXXXXXXXXXXoooooXXXXXXXXXooooooXXXXXXXXoo...      ",
"     ...oooXXXXXXXXXXXXXXoooooXXXXXXXXXooooooXXXXXXXooo...      ",
"     ...oooooooooXXXXXXXXXXoooooXXXXXXXoooooooooooooooo...      ",
"     ...oooooooooXXXXXXXXXXoooooXXXXXXXoooooooooooooooo...      ",
"     ...oooooooooXXXXXXXXXXoooooooooXXXooooooooooXXXXXX...      ",
"     ...ooXXXXXXXXXXXXXXXXXXXXooooooXXXoooXXXXXXXXXXXXX...      ",
"     ...ooXXXXXXXXXXXXXXXXXXXXooooooXXXoooXXXXXXXXXXXXX...      ",
"     ...ooXXXXXXXXXXXXXXXXXXXXXXXoooXXXoooXXXXXXXXXXXXX...      ",
"     ...ooXXXXXXXXXXXXXXXXXXXXXXXoooXXXXXXXXXXXXXXXXXXX...      ",
"     ...ooXXXXXXXXXXXXXXXXXXXXXXXoooXXXXXXXXXXXXXXXXXXX...      ",
"     ...ooXXXXXXXXXXXXXXXXXXXXXXXoooXXXXXXXXXXXXXXXXXXX...      ",
"     ...ooXXXXXXXXXXXXXXXXXXXXXXXoooXXXXXXXXXXXXXXXXXXX...      ",
"     ...ooooooXXXXXXXXXXXXXXXXXXXoooXXXXXXXXXXXXXXXXXXX...      ",
"     ...ooooooXXXXXXXXXXXXXXXXXXXoooXXXXXXXXXXXXXXXXXXX...      ",
"     ...ooooooooooooXXXXXXXXXXXXXXXXXXXXXXXXXXXXXXXXXXX...      ",
"     ...ooooooooooooXXXXXXXXXXXXXXXXXXXoooooooXXXoooXXX...      ",
"     ...ooooooooooooXXXXXXXXXXXXXXXXXXXoooooooXXXoooXXX...      ",
"     ...oooooooooXXXXXXXXXXXXXXXXXXXXXXoooooooXXXoooXXX...      ",
"     ...XXXXXXoooXXXXXXXoooXXXXXXXXoooooooooooooooooXXX...      ",
"     ..XXXXXXXoooXXXXXXXoooXXXXXXXXoooooooooooooooooXXX...      ",
"     ..XXXXXXXoooXXXXXXXoooXXXXXXXXoooooooooooooooooXXX...      ",
"     ..XXXXXXXooooooooooooooooXXXXXXXXXoooooooooooooooo...      ",
"     ..XXXXXXXooooooooooooooooXXXXXXXXXoooooooooooooooo...      ",
"     ..XXXXXXXoooooooooXXXXXXXXXXXXXXXXoooooooooooooooo...      ",
"     ...ooooXXXXXXXXXooXXXXXXXXXXXXXXXXoooooooooooooooo...      ",
"     ...ooooXXXXXXXXXooXXXXXXXXXXXXXXXXoooooooooooooooo...      ",
"     ...ooooXXXXXXXXXooXXXXooooXXXXXXXXoooooooooooooooo...      ",
"     ...oooooXXXXXXXXXXXXXXooooXXXXXXXXXXXooooooooooXXX...      ",
"     ...oooooXXXXXXXXXXXXXXooooXXXXXXXXXXXooooooooooXXX...      ",
"     ...ooooooooooooXXXXXXXooooXXXXXXXXXXXooooooooooXXX...      ",
"     ...oooooooooooooXXXoooooooXXXXXXXXXXXXXXXXXXXXXXXX...      ",
"     ...oooooooooooooXXXooooooooooooXXXXXXXXXXXXXXXXXXX...      ",
"     ...oooXXXXXXXXXXXXXooooooooooooXXXXXXXXXXXXXXXXXXX...      ",
"     ...oooXXXXXXXXXXXXXXXXXXooooXXXXXXXXXXXXXXXXXXXXXX...      ",
"     ...oooXXXXXXXXXXXXXXXXXXooooXXXXXXXXXXXXXXXXXXXXXX...      ",
"     ...oooXXXXXXXXXXXXXXXXXXooooXXXXXXXXXXXXXXXXXXXXXX...      ",
"     ...oooXXXXXXXXXXXXXXXXXXXXXXXXXXXXXXXXXXXXXXXXXXXX...      ",
"     ...XXXXXXooooooooooXXXXXXXXXXXXXXXXXXXXXXXXXXXXXXX...      ",
"     ...XXXXXXooooooooooXXXXXXXXXXXXXXXXXXXXXXXXXXXXXXX...      ",
"     ...XXXXXXooooooooooXXXXXXXXXXXXXXXXXXXXXXXXXXXXXXX...      ",
"     ...XXXooooooooooooooooXXXXXXXXXXXXXXoooooooXXXXXXX...      ",
"     ...XXXooooooooooooooooXXXXXXXXXXXXXXoooooooXXXXXXX...      ",
"     ...XXXooooooXXXXXXXXXXXXXXXXXXXXXXXXoooooooXXXXXXX...      ",
"     ..ooooooooooXXXXXXXXXXXXXXXXXXoooooooooooooooooooo...      ",
"     ..ooooooooooXXXXXXXXXXXXXXXXXXoooooooooooooooooooo...      ",
"     ...oooooooooXXXXXXXXXXXXXXXXXXoooooooooooooooooooo...      ",
"     .....................XXXXXXXXX............ooooo......      ",
"     .....................................................      ",
"     .....................................................      ",
"                                                                ",
"                                                                ",
"                                                                ",
"                                                                ",
"                                                                ",
"                                                                "
};