/* XPM */
static char *result[] = {
/* columns rows colors chars-per-pixel */
"32 32 9 1 ",
"  c #B06700",
". c #BF6F00",
"X c #FF9800",
"o c #FF9900",
"O c #FFA200",
"+ c #FFB700",
"@ c #FFC107",
"# c #FFE100",
"$ c None",
/* pixels */
"$$$$$$$$$$$$$$$$$$$$$$$$$$$$$$$$",
"$$$$$$$$$$$$$$$$$$$$$$$$$$$$$$$$",
"$$$$$$$$$$$$$$$$$$$$$$$$$$$$$$$$",
"$$$                          $$$",
"$$$                          $$$",
"$$$XXXXXXXXXXXXXOOO@@..XXXXXX$$$",
"$$$XXXXXXXXXXXXXXXXXX  XXXXXX$$$",
"$$$XXXXXXXXXXXXXXXXXX  XXXXXX$$$",
"$$$   .....            ...   $$$",
"$$$OO+@@##.XXXOOOO@++++@##.XX$$$",
"$$$OO+@@##.XXXOOOO@++++@##.XX$$$",
"$$$XXXOO@@.XXXXXXXXXXOOO@@.XX$$$",
"$$$XXXXXOO XXXXXXXXXXXXXXX XX$$$",
"$$$XXXXXOO XXXXXXXXXXXXXXX XX$$$",
"$$$               ...        $$$",
"$$$XXXXXXXOOO+oo++@##..XXXXXX$$$",
"$$$XXXXXXXOOO+oo++@##..XXXXXX$$$",
"$$$XXXXXXXXXXXXXOOO@@  XXXXXX$$$",
"$$$XXXXXXXXXXXXXXXXXX  XXXXXX$$$",
"$$$XXXXXXXXXXXXXXXXXX  XXXXXX$$$",
"$$$   ....             ....  $$$",
"$$$XX+OO##.XXOOO++@++@@@##.XX$$$",
"$$$XX+OO##.XXOOO++@++@@@##.XX$$$",
"$$$XXXOO@@.XXXXXXXXXXOOO@@.XX$$$",
"$$$XXXXXOO XXXXXXXXXXXXXOO XX$$$",
"$$$XXXXXOO XXXXXXXXXXXXXOO XX$$$",
"$$$                          $$$",
"$$$$$$$$$$$$$$$$$$$$$$$$$$$$$$$$",
"$$$$$$$$$$$$$$$$$$$$$$$$$$$$$$$$",
"$$$$$$$$$$$$$$$$$$$$$$$$$$$$$$$$",
"$$$$$$$$$$$$$$$$$$$$$$$$$$$$$$$$",
"$$$$$$$$$$$$$$$$$$$$$$$$$$$$$$$$"
};