/* XPM */
static char *dd8bd8cdd9574bf6a0ca4a05397f00ddL8im1imlOTg5RwVn[] = {
/* columns rows colors chars-per-pixel */
"32 32 3 1 ",
"  c #961F0F",
". c #B3141C",
"X c #DE2209",
/* pixels */
"XXXXXXXXXXXXXXX                 ",
"XXXXXXXXXXXXXXX                 ",
"XXXXXXXXXXXXXXX                 ",
"................................",
"................................",
"       .XXXXX           .XXXXXXX",
"       .XXXXX           .XXXXXXX",
"       .XX              .XX     ",
"       .                .       ",
"       .                .       ",
"................................",
"................................",
"XXXXXXX        ..XXXXX          ",
"XXX            ..XX             ",
"XXX            ..XX             ",
"               ..               ",
"               ..               ",
"................................",
"................................",
"       .XXXXX           .XXXX   ",
"       .XX              .XX     ",
"       .XX              .XX     ",
"       .                .       ",
"       .                .       ",
"................................",
"XXXXXXX        ..XXXXX          ",
"XXXXXXX        ..XXXXX          ",
"XXX            ..XX             ",
"XXX            ..XX             ",
"               ..               ",
"               ..               ",
"               ..               "
};